<svg width="66" height="60" viewBox="0 0 66 60" fill="none" xmlns="http://www.w3.org/2000/svg" xmlns:xlink="http://www.w3.org/1999/xlink">
<path d="M36.392,0C40.105,0.009 41.989,0.027 43.616,0.069L44.256,0.09C44.995,0.114 45.724,0.144 46.605,0.18C50.116,0.33 52.512,0.834 54.614,1.575C56.792,2.337 58.627,3.369 60.461,5.034C62.14,6.533 63.438,8.347 64.266,10.35C65.081,12.261 65.636,14.439 65.801,17.634C65.84,18.432 65.873,19.095 65.9,19.77L65.919,20.352C65.969,21.827 65.989,23.54 65.995,26.915L65.999,29.153L65.999,33.083C66.007,35.271 65.981,37.46 65.923,39.647L65.903,40.229C65.876,40.904 65.843,41.567 65.804,42.365C65.639,45.56 65.078,47.735 64.266,49.649C63.438,51.651 62.14,53.466 60.461,54.965C58.812,56.491 56.817,57.671 54.614,58.424C52.512,59.165 50.116,59.669 46.605,59.819L44.256,59.909L43.616,59.927C41.989,59.969 40.105,59.99 36.392,59.996L33.931,59.999L29.611,59.999C27.203,60.006 24.795,59.983 22.388,59.93L21.748,59.912C20.964,59.885 20.181,59.854 19.398,59.819C15.887,59.669 13.492,59.165 11.386,58.424C9.185,57.671 7.19,56.49 5.542,54.965C3.863,53.466 2.563,51.652 1.734,49.649C0.919,47.738 0.365,45.56 0.2,42.365L0.101,40.229L0.084,39.647C0.024,37.46 -0.004,35.271 0.002,33.083L0.002,26.915C-0.007,24.727 0.017,22.539 0.074,20.352L0.098,19.77C0.124,19.095 0.157,18.432 0.197,17.634C0.362,14.439 0.916,12.264 1.731,10.35C2.562,8.346 3.863,6.532 5.546,5.034C7.193,3.509 9.186,2.328 11.386,1.575C13.492,0.834 15.884,0.33 19.398,0.18C20.276,0.144 21.009,0.114 21.748,0.09L22.388,0.072C24.794,0.019 27.201,-0.004 29.608,0.003L36.392,0ZM33,15C28.624,15 24.428,16.58 21.334,19.393C18.239,22.206 16.501,26.021 16.501,29.999C16.501,33.977 18.239,37.793 21.334,40.606C24.428,43.419 28.624,44.999 33,44.999C37.376,44.999 41.573,43.419 44.667,40.606C47.761,37.793 49.499,33.977 49.499,29.999C49.499,26.021 47.761,22.206 44.667,19.393C41.573,16.58 37.376,15 33,15ZM33,20.999C34.3,20.999 35.588,21.232 36.789,21.684C37.99,22.136 39.081,22.799 40.001,23.634C40.92,24.47 41.649,25.462 42.147,26.554C42.645,27.646 42.901,28.816 42.901,29.998C42.902,31.18 42.646,32.35 42.148,33.442C41.651,34.534 40.922,35.526 40.003,36.362C39.084,37.198 37.993,37.861 36.792,38.313C35.591,38.766 34.304,38.999 33.004,38.999C30.378,38.999 27.86,38.051 26.004,36.363C24.147,34.675 23.104,32.386 23.104,29.999C23.104,27.612 24.147,25.323 26.004,23.635C27.86,21.948 30.378,20.999 33.004,20.999M50.328,10.5C49.234,10.5 48.185,10.895 47.411,11.598C46.637,12.301 46.203,13.255 46.203,14.25C46.203,15.244 46.637,16.198 47.411,16.901C48.185,17.604 49.234,18 50.328,18C51.422,18 52.471,17.604 53.244,16.901C54.018,16.198 54.452,15.244 54.452,14.25C54.452,13.255 54.018,12.301 53.244,11.598C52.471,10.895 51.422,10.5 50.328,10.5Z" fill="#FFFFFF"/>
</svg>
