<svg width="64" height="64" viewBox="0 0 64 64" fill="none" xmlns="http://www.w3.org/2000/svg" xmlns:xlink="http://www.w3.org/1999/xlink">
<path d="M23.356,0C29.816,0 36.011,2.565 40.578,7.13C45.146,11.694 47.712,17.886 47.712,24.342C47.712,30.408 45.501,35.951 41.829,40.183L63,61.341L60.34,64L39.169,42.841C34.767,46.617 29.156,48.69 23.356,48.683C16.896,48.683 10.701,46.119 6.134,41.554C1.566,36.989 -1,30.798 -1,24.342C-1,17.886 1.566,11.694 6.134,7.13C10.701,2.565 16.896,0 23.356,0ZM23.356,3.745C17.89,3.745 12.648,5.915 8.783,9.778C4.918,13.64 2.747,18.879 2.747,24.342C2.747,29.804 4.918,35.043 8.783,38.906C12.648,42.769 17.89,44.939 23.356,44.939C26.062,44.939 28.742,44.406 31.243,43.371C33.743,42.336 36.015,40.818 37.929,38.906C39.842,36.993 41.36,34.723 42.396,32.224C43.432,29.725 43.965,27.047 43.965,24.342C43.965,21.637 43.432,18.959 42.396,16.46C41.36,13.961 39.842,11.69 37.929,9.778C36.015,7.865 33.743,6.348 31.243,5.313C28.742,4.278 26.062,3.745 23.356,3.745Z" transform="rotate(360 31 32)" fill="#000000"/>
</svg>
