<svg width="70" height="60" viewBox="0 0 70 60" fill="none" xmlns="http://www.w3.org/2000/svg" xmlns:xlink="http://www.w3.org/1999/xlink">
<path d="M70,7.059C67.424,8.294 64.646,9.106 61.769,9.494C64.713,7.624 66.989,4.659 68.059,1.094C65.282,2.859 62.204,4.094 58.958,4.8C56.315,1.765 52.6,0 48.384,0C40.521,0 34.097,6.776 34.097,15.141C34.097,16.341 34.23,17.506 34.465,18.6C22.553,17.965 11.945,11.929 4.885,2.788C3.647,5.012 2.945,7.624 2.945,10.376C2.945,15.635 5.454,20.294 9.336,22.941C6.96,22.941 4.751,22.235 2.811,21.176L2.811,21.282C2.811,28.624 7.763,34.765 14.321,36.141C12.216,36.752 10.005,36.836 7.863,36.388C8.772,39.397 10.552,42.03 12.953,43.916C15.353,45.803 18.254,46.848 21.248,46.906C16.174,51.143 9.884,53.433 3.413,53.4C2.275,53.4 1.138,53.329 0,53.188C6.358,57.494 13.92,60 22.017,60C48.384,60 62.873,36.918 62.873,16.906C62.873,16.235 62.873,15.6 62.839,14.929C65.65,12.812 68.059,10.129 70,7.059Z" fill="#FFFFFF"/>
</svg>
