<svg width="40" height="40" viewBox="0 0 40 40" fill="none" xmlns="http://www.w3.org/2000/svg" xmlns:xlink="http://www.w3.org/1999/xlink">
<path d="M1.171,11.02C2.869,7.706 5.474,4.921 8.695,2.975C11.915,1.029 15.625,-0.001 19.408,0C24.908,0 29.529,1.982 33.061,5.21L27.21,10.946C25.094,8.964 22.404,7.954 19.408,7.954C14.092,7.954 9.592,11.474 7.99,16.2C7.582,17.4 7.349,18.68 7.349,20C7.349,21.32 7.582,22.6 7.99,23.8C9.594,28.528 14.092,32.046 19.408,32.046C22.153,32.046 24.49,31.336 26.318,30.136C27.378,29.452 28.286,28.564 28.986,27.527C29.686,26.49 30.164,25.324 30.392,24.1L19.408,24.1L19.408,16.364L38.629,16.364C38.869,17.672 39,19.036 39,20.454C39,26.546 36.776,31.674 32.914,35.154C29.539,38.21 24.918,40 19.408,40C16.728,40.001 14.074,39.484 11.597,38.48C9.121,37.475 6.87,36.002 4.975,34.144C3.08,32.287 1.577,30.082 0.551,27.655C-0.474,25.228 -1.001,22.627 -1,20C-1,16.772 -0.212,13.72 1.171,11.02Z" fill="#FFFFFF"/>
</svg>
