<svg width="56" height="44" viewBox="0 0 56 44" fill="none" xmlns="http://www.w3.org/2000/svg" xmlns:xlink="http://www.w3.org/1999/xlink">
<path d="M55,5.176C52.939,6.082 50.717,6.678 48.415,6.962C50.771,5.591 52.591,3.416 53.447,0.802C51.226,2.096 48.763,3.002 46.166,3.52C44.052,1.294 41.08,0 37.707,0C31.417,0 26.277,4.969 26.277,11.104C26.277,11.984 26.384,12.838 26.572,13.64C17.042,13.174 8.556,8.748 2.908,2.045C1.918,3.675 1.356,5.591 1.356,7.609C1.356,11.466 3.363,14.882 6.468,16.824C4.568,16.824 2.801,16.306 1.249,15.529L1.249,15.607C1.249,20.991 5.21,25.494 10.457,26.504C8.773,26.951 7.004,27.013 5.291,26.685C6.018,28.891 7.442,30.822 9.362,32.205C11.283,33.589 13.603,34.355 15.998,34.398C11.939,37.505 6.907,39.184 1.73,39.16C0.82,39.16 -0.09,39.108 -1,39.005C4.086,42.162 10.136,44 16.614,44C37.707,44 49.298,27.073 49.298,12.398C49.298,11.906 49.298,11.44 49.272,10.948C51.52,9.395 53.447,7.428 55,5.176Z" fill="#FFFFFF"/>
</svg>
