<svg width="22" height="16" viewBox="0 0 22 16" fill="none" xmlns="http://www.w3.org/2000/svg" xmlns:xlink="http://www.w3.org/1999/xlink">
<path d="M20.834,2.789C20.729,3.033 20.576,3.254 20.385,3.439L9.213,14.613C9.009,14.817 8.767,14.979 8.5,15.09C8.233,15.2 7.946,15.257 7.657,15.257C7.368,15.257 7.082,15.2 6.815,15.09C6.548,14.979 6.306,14.817 6.101,14.613L0.585,9.097C0.21,8.721 0,8.212 0,7.682C0,7.151 0.211,6.643 0.586,6.268C0.962,5.893 1.471,5.682 2.001,5.682C2.264,5.682 2.524,5.734 2.767,5.835C3.009,5.935 3.23,6.083 3.415,6.269L7.657,10.511L17.557,0.611C17.742,0.42 17.963,0.267 18.207,0.162C18.451,0.058 18.713,0.002 18.979,0C19.244,-0.002 19.508,0.048 19.753,0.149C19.999,0.249 20.222,0.398 20.41,0.586C20.598,0.774 20.746,0.997 20.847,1.243C20.948,1.488 20.998,1.752 20.996,2.017C20.994,2.283 20.938,2.545 20.834,2.789Z" fill="#FFFFFF"/>
</svg>
