<svg width="50" height="52" viewBox="0 0 50 52" fill="none" xmlns="http://www.w3.org/2000/svg" xmlns:xlink="http://www.w3.org/1999/xlink">
<path d="M24,0.515C37.808,0.515 49,11.708 49,25.515C49.009,31.285 47.013,36.879 43.355,41.34L43.405,41.395L43.075,41.675C40.731,44.448 37.809,46.676 34.514,48.203C31.22,49.73 27.631,50.519 24,50.515C16.625,50.515 10,47.323 5.425,42.248L4.925,41.673L4.595,41.398L4.645,41.338C0.987,36.877 -1.008,31.284 -1,25.515C-1,11.708 10.193,0.515 24,0.515ZM24,38.015C19.35,38.015 15.148,39.495 12.018,41.53C15.474,44.123 19.679,45.522 24,45.515C28.321,45.522 32.526,44.123 35.983,41.53C32.406,39.238 28.248,38.019 24,38.015ZM24,5.515C20.236,5.515 16.549,6.577 13.362,8.579C10.175,10.581 7.617,13.441 5.983,16.832C4.349,20.222 3.705,24.005 4.124,27.745C4.544,31.485 6.01,35.031 8.355,37.975C12.408,35.068 17.938,33.015 24,33.015C30.063,33.015 35.593,35.068 39.645,37.975C41.99,35.031 43.456,31.485 43.876,27.745C44.296,24.005 43.651,20.222 42.017,16.832C40.383,13.441 37.825,10.581 34.638,8.579C31.451,6.577 27.764,5.515 24,5.515ZM24,10.515C26.652,10.515 29.196,11.569 31.071,13.444C32.946,15.319 34,17.863 34,20.515C34,23.167 32.946,25.711 31.071,27.586C29.196,29.462 26.652,30.515 24,30.515C21.348,30.515 18.804,29.462 16.929,27.586C15.054,25.711 14,23.167 14,20.515C14,17.863 15.054,15.319 16.929,13.444C18.804,11.569 21.348,10.515 24,10.515ZM24,15.515C22.674,15.515 21.402,16.042 20.464,16.98C19.527,17.917 19,19.189 19,20.515C19,21.841 19.527,23.113 20.464,24.051C21.402,24.988 22.674,25.515 24,25.515C25.326,25.515 26.598,24.988 27.536,24.051C28.473,23.113 29,21.841 29,20.515C29,19.189 28.473,17.917 27.536,16.98C26.598,16.042 25.326,15.515 24,15.515Z" clip-rule="evenodd" fill-rule="evenodd" fill="#AAAAAA"/>
</svg>
