<svg width="40" height="52" viewBox="0 0 40 52" fill="none" xmlns="http://www.w3.org/2000/svg" xmlns:xlink="http://www.w3.org/1999/xlink">
<path d="M20,27.712C19.239,27.703 18.493,27.928 17.864,28.355C17.234,28.783 16.75,29.393 16.478,30.104C16.206,30.815 16.158,31.592 16.34,32.331C16.523,33.07 16.928,33.735 17.5,34.237L17.5,37.712C17.5,38.375 17.763,39.011 18.232,39.48C18.701,39.949 19.337,40.212 20,40.212C20.663,40.212 21.299,39.949 21.768,39.48C22.237,39.011 22.5,38.375 22.5,37.712L22.5,34.237C23.072,33.735 23.477,33.07 23.66,32.331C23.842,31.592 23.794,30.815 23.522,30.104C23.25,29.393 22.766,28.783 22.136,28.355C21.507,27.928 20.761,27.703 20,27.712ZM32.5,17.712L32.5,12.712C32.5,9.397 31.183,6.218 28.839,3.873C26.495,1.529 23.315,0.212 20,0.212C16.685,0.212 13.505,1.529 11.161,3.873C8.817,6.218 7.5,9.397 7.5,12.712L7.5,17.712C5.511,17.712 3.603,18.502 2.197,19.909C0.79,21.315 0,23.223 0,25.212L0,42.712C0,44.701 0.79,46.609 2.197,48.016C3.603,49.422 5.511,50.212 7.5,50.212L32.5,50.212C34.489,50.212 36.397,49.422 37.803,48.016C39.21,46.609 40,44.701 40,42.712L40,25.212C40,23.223 39.21,21.315 37.803,19.909C36.397,18.502 34.489,17.712 32.5,17.712ZM12.5,12.712C12.5,10.723 13.29,8.815 14.697,7.409C16.103,6.002 18.011,5.212 20,5.212C21.989,5.212 23.897,6.002 25.303,7.409C26.71,8.815 27.5,10.723 27.5,12.712L27.5,17.712L12.5,17.712L12.5,12.712ZM35,42.712C35,43.375 34.737,44.011 34.268,44.48C33.799,44.949 33.163,45.212 32.5,45.212L7.5,45.212C6.837,45.212 6.201,44.949 5.732,44.48C5.263,44.011 5,43.375 5,42.712L5,25.212C5,24.549 5.263,23.913 5.732,23.444C6.201,22.976 6.837,22.712 7.5,22.712L32.5,22.712C33.163,22.712 33.799,22.976 34.268,23.444C34.737,23.913 35,24.549 35,25.212L35,42.712Z" fill="#AAAAAA"/>
</svg>
