<svg width="40" height="40" viewBox="0 0 40 40" fill="none" xmlns="http://www.w3.org/2000/svg" xmlns:xlink="http://www.w3.org/1999/xlink">
<path d="M2.171,11.02C3.869,7.706 6.474,4.921 9.695,2.975C12.915,1.029 16.625,-0.001 20.408,0C25.908,0 30.529,1.982 34.061,5.21L28.21,10.946C26.094,8.964 23.404,7.954 20.408,7.954C15.092,7.954 10.592,11.474 8.99,16.2C8.582,17.4 8.349,18.68 8.349,20C8.349,21.32 8.582,22.6 8.99,23.8C10.594,28.528 15.092,32.046 20.408,32.046C23.153,32.046 25.49,31.336 27.318,30.136C28.378,29.452 29.286,28.564 29.986,27.527C30.686,26.49 31.164,25.324 31.392,24.1L20.408,24.1L20.408,16.364L39.629,16.364C39.869,17.672 40,19.036 40,20.454C40,26.546 37.776,31.674 33.914,35.154C30.539,38.21 25.918,40 20.408,40C17.728,40.001 15.074,39.484 12.597,38.48C10.121,37.475 7.87,36.002 5.975,34.144C4.08,32.287 2.577,30.082 1.551,27.655C0.526,25.228 -0.001,22.627 0,20C0,16.772 0.788,13.72 2.171,11.02Z" fill="#FFFFFF"/>
</svg>
