<svg width="50" height="52" viewBox="0 0 50 52" fill="none" xmlns="http://www.w3.org/2000/svg" xmlns:xlink="http://www.w3.org/1999/xlink">
<path d="M25,0.515C38.808,0.515 50,11.708 50,25.515C50.009,31.285 48.013,36.879 44.355,41.34L44.405,41.395L44.075,41.675C41.731,44.448 38.809,46.676 35.514,48.203C32.22,49.73 28.631,50.519 25,50.515C17.625,50.515 11,47.323 6.425,42.248L5.925,41.673L5.595,41.398L5.645,41.338C1.987,36.877 -0.008,31.284 0,25.515C0,11.708 11.193,0.515 25,0.515ZM25,38.015C20.35,38.015 16.148,39.495 13.018,41.53C16.474,44.123 20.679,45.522 25,45.515C29.321,45.522 33.526,44.123 36.983,41.53C33.406,39.238 29.248,38.019 25,38.015ZM25,5.515C21.236,5.515 17.549,6.577 14.362,8.579C11.175,10.581 8.617,13.441 6.983,16.832C5.349,20.222 4.705,24.005 5.124,27.745C5.544,31.485 7.01,35.031 9.355,37.975C13.408,35.068 18.938,33.015 25,33.015C31.063,33.015 36.593,35.068 40.645,37.975C42.99,35.031 44.456,31.485 44.876,27.745C45.296,24.005 44.651,20.222 43.017,16.832C41.383,13.441 38.825,10.581 35.638,8.579C32.451,6.577 28.764,5.515 25,5.515ZM25,10.515C27.652,10.515 30.196,11.569 32.071,13.444C33.946,15.319 35,17.863 35,20.515C35,23.167 33.946,25.711 32.071,27.586C30.196,29.462 27.652,30.515 25,30.515C22.348,30.515 19.804,29.462 17.929,27.586C16.054,25.711 15,23.167 15,20.515C15,17.863 16.054,15.319 17.929,13.444C19.804,11.569 22.348,10.515 25,10.515ZM25,15.515C23.674,15.515 22.402,16.042 21.464,16.98C20.527,17.917 20,19.189 20,20.515C20,21.841 20.527,23.113 21.464,24.051C22.402,24.988 23.674,25.515 25,25.515C26.326,25.515 27.598,24.988 28.536,24.051C29.473,23.113 30,21.841 30,20.515C30,19.189 29.473,17.917 28.536,16.98C27.598,16.042 26.326,15.515 25,15.515Z" clip-rule="evenodd" fill-rule="evenodd" fill="#AAAAAA"/>
</svg>
