<svg width="48" height="48" viewBox="0 0 48 48" fill="none" xmlns="http://www.w3.org/2000/svg" xmlns:xlink="http://www.w3.org/1999/xlink">
<path d="M45.563,0.563L2.438,0.563C1.4,0.563 0.563,1.4 0.563,2.438L0.563,45.563C0.563,46.6 1.4,47.438 2.438,47.438L45.563,47.438C46.6,47.438 47.438,46.6 47.438,45.563L47.438,2.438C47.438,1.4 46.6,0.563 45.563,0.563ZM40.148,14.244L36.404,14.244C33.469,14.244 32.9,15.639 32.9,17.689L32.9,22.207L39.908,22.207L38.994,29.279L32.9,29.279L32.9,47.438L25.594,47.438L25.594,29.285L19.482,29.285L19.482,22.207L25.594,22.207L25.594,16.992C25.594,10.939 29.291,7.641 34.693,7.641C37.283,7.641 39.504,7.834 40.154,7.922L40.154,14.244L40.148,14.244Z" fill="#FFFFFF"/>
</svg>
