<svg width="56" height="44" viewBox="0 0 56 44" fill="none" xmlns="http://www.w3.org/2000/svg" xmlns:xlink="http://www.w3.org/1999/xlink">
<path d="M56,5.176C53.939,6.082 51.717,6.678 49.415,6.962C51.771,5.591 53.591,3.416 54.447,0.802C52.226,2.096 49.763,3.002 47.166,3.52C45.052,1.294 42.08,0 38.707,0C32.417,0 27.277,4.969 27.277,11.104C27.277,11.984 27.384,12.838 27.572,13.64C18.042,13.174 9.556,8.748 3.908,2.045C2.918,3.675 2.356,5.591 2.356,7.609C2.356,11.466 4.363,14.882 7.468,16.824C5.568,16.824 3.801,16.306 2.249,15.529L2.249,15.607C2.249,20.991 6.21,25.494 11.457,26.504C9.773,26.951 8.004,27.013 6.291,26.685C7.018,28.891 8.442,30.822 10.362,32.205C12.283,33.589 14.603,34.355 16.998,34.398C12.939,37.505 7.907,39.184 2.73,39.16C1.82,39.16 0.91,39.108 0,39.005C5.086,42.162 11.136,44 17.614,44C38.707,44 50.298,27.073 50.298,12.398C50.298,11.906 50.298,11.44 50.272,10.948C52.52,9.395 54.447,7.428 56,5.176Z" fill="#FFFFFF"/>
</svg>
