<svg width="40" height="52" viewBox="0 0 40 52" fill="none" xmlns="http://www.w3.org/2000/svg" xmlns:xlink="http://www.w3.org/1999/xlink">
<path d="M19,27.712C18.239,27.703 17.493,27.928 16.864,28.355C16.234,28.783 15.75,29.393 15.478,30.104C15.206,30.815 15.158,31.592 15.34,32.331C15.523,33.07 15.928,33.735 16.5,34.237L16.5,37.712C16.5,38.375 16.763,39.011 17.232,39.48C17.701,39.949 18.337,40.212 19,40.212C19.663,40.212 20.299,39.949 20.768,39.48C21.237,39.011 21.5,38.375 21.5,37.712L21.5,34.237C22.072,33.735 22.477,33.07 22.66,32.331C22.842,31.592 22.794,30.815 22.522,30.104C22.25,29.393 21.766,28.783 21.136,28.355C20.507,27.928 19.761,27.703 19,27.712ZM31.5,17.712L31.5,12.712C31.5,9.397 30.183,6.218 27.839,3.873C25.495,1.529 22.315,0.212 19,0.212C15.685,0.212 12.505,1.529 10.161,3.873C7.817,6.218 6.5,9.397 6.5,12.712L6.5,17.712C4.511,17.712 2.603,18.502 1.197,19.909C-0.21,21.315 -1,23.223 -1,25.212L-1,42.712C-1,44.701 -0.21,46.609 1.197,48.016C2.603,49.422 4.511,50.212 6.5,50.212L31.5,50.212C33.489,50.212 35.397,49.422 36.803,48.016C38.21,46.609 39,44.701 39,42.712L39,25.212C39,23.223 38.21,21.315 36.803,19.909C35.397,18.502 33.489,17.712 31.5,17.712ZM11.5,12.712C11.5,10.723 12.29,8.815 13.697,7.409C15.103,6.002 17.011,5.212 19,5.212C20.989,5.212 22.897,6.002 24.303,7.409C25.71,8.815 26.5,10.723 26.5,12.712L26.5,17.712L11.5,17.712L11.5,12.712ZM34,42.712C34,43.375 33.737,44.011 33.268,44.48C32.799,44.949 32.163,45.212 31.5,45.212L6.5,45.212C5.837,45.212 5.201,44.949 4.732,44.48C4.263,44.011 4,43.375 4,42.712L4,25.212C4,24.549 4.263,23.913 4.732,23.444C5.201,22.976 5.837,22.712 6.5,22.712L31.5,22.712C32.163,22.712 32.799,22.976 33.268,23.444C33.737,23.913 34,24.549 34,25.212L34,42.712Z" fill="#AAAAAA"/>
</svg>
