<svg width="48" height="48" viewBox="0 0 48 48" fill="none" xmlns="http://www.w3.org/2000/svg" xmlns:xlink="http://www.w3.org/1999/xlink">
<path d="M44.563,0.563L1.438,0.563C0.4,0.563 -0.438,1.4 -0.438,2.438L-0.438,45.563C-0.438,46.6 0.4,47.438 1.438,47.438L44.563,47.438C45.6,47.438 46.438,46.6 46.438,45.563L46.438,2.438C46.438,1.4 45.6,0.563 44.563,0.563ZM39.148,14.244L35.404,14.244C32.469,14.244 31.9,15.639 31.9,17.689L31.9,22.207L38.908,22.207L37.994,29.279L31.9,29.279L31.9,47.438L24.594,47.438L24.594,29.285L18.482,29.285L18.482,22.207L24.594,22.207L24.594,16.992C24.594,10.939 28.291,7.641 33.693,7.641C36.283,7.641 38.504,7.834 39.154,7.922L39.154,14.244L39.148,14.244Z" fill="#FFFFFF"/>
</svg>
