<svg width="72" height="60" viewBox="0 0 72 60" fill="none" xmlns="http://www.w3.org/2000/svg" xmlns:xlink="http://www.w3.org/1999/xlink">
<path d="M28.8,42.857L47.484,30L28.8,17.143L28.8,42.857ZM70.416,9.3C70.884,11.314 71.208,14.014 71.424,17.443C71.676,20.871 71.784,23.829 71.784,26.4L72,30C72,39.386 71.424,46.286 70.416,50.7C69.516,54.557 67.428,57.043 64.188,58.114C62.496,58.671 59.4,59.057 54.648,59.314C49.968,59.614 45.684,59.743 41.724,59.743L36,60C20.916,60 11.52,59.314 7.812,58.114C4.572,57.043 2.484,54.557 1.584,50.7C1.116,48.686 0.792,45.986 0.576,42.557C0.324,39.129 0.216,36.171 0.216,33.6L0,30C0,20.614 0.576,13.714 1.584,9.3C2.484,5.443 4.572,2.957 7.812,1.886C9.504,1.329 12.6,0.943 17.352,0.686C22.032,0.386 26.316,0.257 30.276,0.257L36,0C51.084,0 60.48,0.686 64.188,1.886C67.428,2.957 69.516,5.443 70.416,9.3Z" fill="#FFFFFF"/>
</svg>
